#N canvas 887 58 437 613 10;
#X obj 349 7 cnv 10 60 14 empty empty chak -2 10 1 20 -228856 -262144
0;
#X obj 54 474 out~;
#X text 50 52 convierto un conjunto de amplitudes de muestra en una
secuencia randómica. Es la implementación mas simple del ruido blanco.
;
#X obj 118 230 rms~ -db;
#X obj 118 258 nbx 5 14 -1e+37 1e+37 0 0 empty empty empty 0 -8 0 10
-228856 -1 -1 -4.74908 256;
#X obj 53 187 expr~ random(-1000 \, 1001)/1000.;
#X floatatom 220 395 0 0 0 0 - - -;
#X msg 181 357 0;
#X obj 97 425 fexpr~ $x1 + $x1[$f2];
#X msg 260 357 -20;
#X msg 220 357 -10;
#X connect 3 0 4 0;
#X connect 5 0 1 0;
#X connect 5 0 3 0;
#X connect 5 0 8 0;
#X connect 6 0 8 1;
#X connect 7 0 6 0;
#X connect 8 0 1 1;
#X connect 9 0 6 0;
#X connect 10 0 6 0;
